<svg width="1625" viewBox="0 0 1625 745" xmlns="http://www.w3.org/2000/svg" fill-rule="evenodd" clip-rule="evenodd" stroke-linejoin="round" stroke-miterlimit="2">
    <g fill="#f4db9c" fill-rule="nonzero">
        <path d="M1492.44 136.981c0 6.596-5.354 11.944-11.949 11.944-6.599 0-11.945-5.348-11.945-11.944 0-6.598 5.346-11.949 11.945-11.949 6.595 0 11.949 5.351 11.949 11.949m24.56 0c0 6.596-5.346 11.944-11.943 11.944-6.603 0-11.951-5.348-11.951-11.944 0-6.598 5.348-11.949 11.951-11.949 6.597 0 11.943 5.351 11.943 11.949m25.88 0c0 6.596-5.351 11.944-11.949 11.944-6.593 0-11.944-5.348-11.944-11.944 0-6.598 5.351-11.949 11.944-11.949 6.598 0 11.949 5.351 11.949 11.949m-12.61 21.235c0 6.599-5.351 11.949-11.952 11.949-6.586 0-11.941-5.35-11.941-11.949 0-6.597 5.355-11.947 11.941-11.947 6.601 0 11.952 5.35 11.952 11.947"/>
        <path d="M1503.73 158.216c-.001 6.599-5.351 11.949-11.946 11.949-6.603 0-11.952-5.35-11.952-11.949 0-6.597 5.349-11.947 11.952-11.947 6.594 0 11.945 5.35 11.945 11.947"/>
        <path d="M1516.33 178.787c0 6.598-5.346 11.948-11.943 11.948-6.603 0-11.949-5.35-11.949-11.948 0-6.591 5.346-11.94 11.949-11.94 6.597 0 11.943 5.349 11.943 11.94"/>
    </g>
    <g fill="#f4db9c" fill-rule="nonzero">
        <path d="M23.894 690.268c0 6.596-5.354 11.943-11.949 11.943C5.346 702.211 0 696.864 0 690.268c0-6.598 5.346-11.949 11.945-11.949 6.595 0 11.949 5.351 11.949 11.949m24.557 0c0 6.596-5.346 11.943-11.943 11.943-6.603 0-11.951-5.347-11.951-11.943 0-6.598 5.348-11.949 11.951-11.949 6.597 0 11.943 5.351 11.943 11.949m25.882 0c0 6.596-5.351 11.943-11.949 11.943-6.593 0-11.944-5.347-11.944-11.943 0-6.598 5.351-11.949 11.944-11.949 6.598 0 11.949 5.351 11.949 11.949m-12.609 21.234c0 6.599-5.351 11.949-11.952 11.949-6.586 0-11.941-5.35-11.941-11.949 0-6.597 5.355-11.947 11.941-11.947 6.601 0 11.952 5.35 11.952 11.947"/>
        <path d="M35.178 711.502c0 6.599-5.351 11.949-11.945 11.949-6.603 0-11.952-5.35-11.952-11.949 0-6.597 5.349-11.947 11.952-11.947 6.594 0 11.945 5.35 11.945 11.947"/>
        <path d="M47.786 732.073c0 6.598-5.346 11.948-11.943 11.948-6.603 0-11.949-5.35-11.949-11.948 0-6.592 5.346-11.94 11.949-11.94 6.597 0 11.943 5.348 11.943 11.94"/>
    </g>
    <path d="M153.718 31.02c0 17.138-13.889 31.031-31.025 31.031-17.132 0-31.025-13.893-31.025-31.031C91.668 13.886 105.561 0 122.693 0c17.136 0 31.025 13.886 31.025 31.02" fill="#eed4cf" fill-rule="nonzero"/>
    <clipPath id="a">
        <path d="M153.718 31.02c0 17.138-13.889 31.031-31.024 31.031-17.132 0-31.026-13.893-31.026-31.031C91.668 13.886 105.562 0 122.694 0c17.135 0 31.024 13.886 31.024 31.02z" clip-rule="nonzero"/>
    </clipPath>
    <g clip-path="url(#a)">
        <path d="M131.858 30.497a9.339 9.339 0 0 1-9.339 9.339c-5.164 0-9.345-4.181-9.345-9.339 0-5.161 4.181-9.35 9.345-9.35 5.158 0 9.339 4.189 9.339 9.35" fill="#fdf2f0" fill-rule="nonzero"/>
    </g>
    <path d="M776.005 619.534c0 17.137-13.889 31.031-31.025 31.031-17.132 0-31.025-13.894-31.025-31.031 0-17.135 13.893-31.02 31.025-31.02 17.136 0 31.025 13.885 31.025 31.02" fill="#eed4cf" fill-rule="nonzero"/>
    <clipPath id="b">
        <path d="M776.005 619.534c0 17.136-13.889 31.031-31.025 31.031-17.132 0-31.025-13.895-31.025-31.031 0-17.135 13.893-31.02 31.025-31.02 17.136 0 31.025 13.885 31.025 31.02z" clip-rule="nonzero"/>
    </clipPath>
    <g clip-path="url(#b)">
        <path d="M754.145 619.01c0 5.158-4.181 9.34-9.339 9.34-5.164 0-9.345-4.182-9.345-9.34 0-5.16 4.181-9.35 9.345-9.35 5.158 0 9.339 4.19 9.339 9.35" fill="#fdf2f0" fill-rule="nonzero"/>
    </g>
    <g>
        <path d="M1624.06 699.55c0 17.137-13.889 31.031-31.025 31.031-17.131 0-31.026-13.894-31.026-31.031 0-17.135 13.895-31.02 31.026-31.02 17.136 0 31.025 13.885 31.025 31.02" fill="#eed4cf" fill-rule="nonzero"/>
        <clipPath id="c">
            <path d="M1624.06 699.55c0 17.137-13.889 31.031-31.026 31.031-17.13 0-31.025-13.894-31.025-31.031 0-17.135 13.895-31.019 31.025-31.019 17.137 0 31.026 13.884 31.026 31.019z" clip-rule="nonzero"/>
        </clipPath>
        <g clip-path="url(#c)">
            <path d="M1602.2 699.027a9.34 9.34 0 0 1-9.34 9.34c-5.164 0-9.345-4.182-9.345-9.34 0-5.16 4.181-9.35 9.345-9.35 5.158 0 9.34 4.19 9.34 9.35" fill="#fdf2f0" fill-rule="nonzero"/>
        </g>
    </g>
</svg>
